<!DOCTYPE svg PUBLIC "-//W3C//DTD SVG 1.1//EN" "https://www.w3.org/Graphics/SVG/1.1/DTD/svg11.dtd"><svg xmlns="http://www.w3.org/2000/svg" id="sfn-svg" class="sfn-workflow-graph" width="1221" height="1003">


<g transform="translate(12,19.3671875)"><g class="nodes"><g class="node-container" transform="translate(687.671875,18.5)"><g class="node anchor"><circle class="shape" x="-15.8671875" y="-8.5" r="25.8671875"/><text class="label"><tspan xml:space="preserve" text-anchor="middle" alignment-baseline="central">Start</tspan></text></g></g><g class="node-container" transform="translate(608.54296875,948.9680004119873)"><g class="node anchor"><circle class="shape" x="-12.1796875" y="-8.5" r="22.1796875"/><text class="label"><tspan xml:space="preserve" text-anchor="middle" alignment-baseline="central">End</tspan></text></g></g><g class="node-container" transform="translate(687.671875,80.52600002288818)"><g class="node state Task NotYetStarted"><rect class="shape" rx="5" ry="5" x="-99.09375" y="-18.526000022888184" width="198.1875" height="37.05200004577637"/><text class="label"><tspan xml:space="preserve" text-anchor="middle" alignment-baseline="central">Save Request To DynamoDB</tspan></text></g></g><g class="node-container" transform="translate(687.671875,142.57800006866455)"><g class="node state Task NotYetStarted"><rect class="shape" rx="5" ry="5" x="-186.4140625" y="-18.526000022888184" width="372.828125" height="37.05200004577637"/><text class="label"><tspan xml:space="preserve" text-anchor="middle" alignment-baseline="central">Update Request in Egress Store DynamoDB (processing)</tspan></text></g></g><g class="node-container" transform="translate(687.671875,204.63000011444092)"><g class="node state Task NotYetStarted"><rect class="shape" rx="5" ry="5" x="-109.609375" y="-18.526000022888184" width="219.21875" height="37.05200004577637"/><text class="label"><tspan xml:space="preserve" text-anchor="middle" alignment-baseline="central">Copy Objects To Egress Staging</tspan></text></g></g><g class="node-container" transform="translate(687.671875,266.6820001602173)"><g class="node state Task NotYetStarted"><rect class="shape" rx="5" ry="5" x="-108.8984375" y="-18.526000022888184" width="217.796875" height="37.05200004577637"/><text class="label"><tspan xml:space="preserve" text-anchor="middle" alignment-baseline="central">Notify Information Governance</tspan></text></g></g><g class="node-container" transform="translate(687.671875,328.70800018310547)"><g class="node state Task NotYetStarted"><rect class="shape" rx="5" ry="5" x="-115.5234375" y="-18.5" width="231.046875" height="37"/><text class="label"><tspan xml:space="preserve" text-anchor="middle" alignment-baseline="central">Information Governance Decision</tspan></text></g></g><g class="node-container" transform="translate(687.671875,390.70800018310547)"><g class="node state Task NotYetStarted"><rect class="shape" rx="5" ry="5" x="-132.1328125" y="-18.5" width="264.265625" height="37"/><text class="label"><tspan xml:space="preserve" text-anchor="middle" alignment-baseline="central">Save Information Governance Decision</tspan></text></g></g><g class="node-container" transform="translate(687.671875,452.70800018310547)"><g class="node state Choice NotYetStarted"><rect class="shape" rx="5" ry="5" x="-122.640625" y="-18.5" width="245.28125" height="37"/><text class="label"><tspan xml:space="preserve" text-anchor="middle" alignment-baseline="central">Information Governance Approved?</tspan></text></g></g><g class="node-container" transform="translate(303.57421875,514.7340002059937)"><g class="node state Task NotYetStarted"><rect class="shape" rx="5" ry="5" x="-67.765625" y="-18.526000022888184" width="135.53125" height="37.05200004577637"/><text class="label"><tspan xml:space="preserve" text-anchor="middle" alignment-baseline="central">Notify Research IT</tspan></text></g></g><g class="node-container" transform="translate(687.671875,514.7340002059937)"><g class="node state Task NotYetStarted"><rect class="shape" rx="5" ry="5" x="-151.875" y="-18.526000022888184" width="303.75" height="37.05200004577637"/><text class="label"><tspan xml:space="preserve" text-anchor="middle" alignment-baseline="central">Copy Approved Objects To Datalake - IGLead</tspan></text></g></g><g class="node-container" transform="translate(1037.96875,514.7340002059937)"><g class="node state Task NotYetStarted"><rect class="shape" rx="5" ry="5" x="-158.421875" y="-18.526000022888184" width="316.84375" height="37.05200004577637"/><text class="label"><tspan xml:space="preserve" text-anchor="middle" alignment-baseline="central">Delete Rejected Objects From Staging - IGLead</tspan></text></g></g><g class="node-container" transform="translate(303.57421875,576.78600025177)"><g class="node state Task NotYetStarted"><rect class="shape" rx="5" ry="5" x="-74.390625" y="-18.5" width="148.78125" height="37"/><text class="label"><tspan xml:space="preserve" text-anchor="middle" alignment-baseline="central">Research IT Decision</tspan></text></g></g><g class="node-container" transform="translate(303.57421875,638.8120002746582)"><g class="node state Task NotYetStarted"><rect class="shape" rx="5" ry="5" x="-91" y="-18.5" width="182" height="37"/><text class="label"><tspan xml:space="preserve" text-anchor="middle" alignment-baseline="central">Save Research IT Decision</tspan></text></g></g><g class="node-container" transform="translate(303.57421875,700.8120002746582)"><g class="node state Choice NotYetStarted"><rect class="shape" rx="5" ry="5" x="-81.5078125" y="-18.5" width="163.015625" height="37"/><text class="label"><tspan xml:space="preserve" text-anchor="middle" alignment-baseline="central">Research IT Approved?</tspan></text></g></g><g class="node-container" transform="translate(140.1484375,762.8380002975464)"><g class="node state Task NotYetStarted"><rect class="shape" rx="5" ry="5" x="-140.1484375" y="-18.526000022888184" width="280.296875" height="37.05200004577637"/><text class="label"><tspan xml:space="preserve" text-anchor="middle" alignment-baseline="central">Copy Approved Objects To Datalake - RIT</tspan></text></g></g><g class="node-container" transform="translate(467,762.8380002975464)"><g class="node state Task NotYetStarted"><rect class="shape" rx="5" ry="5" x="-146.703125" y="-18.526000022888184" width="293.40625" height="37.05200004577637"/><text class="label"><tspan xml:space="preserve" text-anchor="middle" alignment-baseline="central">Delete Rejected Objects From Staging - RIT</tspan></text></g></g><g class="node-container" transform="translate(303.57421875,824.8900003433228)"><g class="node state Task NotYetStarted"><rect class="shape" rx="5" ry="5" x="-188.609375" y="-18.526000022888184" width="377.21875" height="37.05200004577637"/><text class="label"><tspan xml:space="preserve" text-anchor="middle" alignment-baseline="central">Update Request in Egress Store DynamoDB (status) - RIT</tspan></text></g></g><g class="node-container" transform="translate(608.54296875,886.9420003890991)"><g class="node state Task NotYetStarted"><rect class="shape" rx="5" ry="5" x="-63.546875" y="-18.526000022888184" width="127.09375" height="37.05200004577637"/><text class="label"><tspan xml:space="preserve" text-anchor="middle" alignment-baseline="central">Notify Requester</tspan></text></g></g><g class="node-container" transform="translate(862.8203125,576.78600025177)"><g class="node state Task NotYetStarted"><rect class="shape" rx="5" ry="5" x="-200.3359375" y="-18.526000022888184" width="400.671875" height="37.05200004577637"/><text class="label"><tspan xml:space="preserve" text-anchor="middle" alignment-baseline="central">Update Request in Egress Store DynamoDB (status) - IGLead</tspan></text></g></g></g><g class="edges"><g class="edge"><path class="path" marker-end="url(#arrowhead829)" d="M687.671875,99.05200004577637L687.6718749999999,101.13533337910968C687.671875,103.21866671244302,687.671875,107.3853333791097,687.6718749999999,111.55200004577635C687.671875,115.71866671244302,687.671875,119.8853333791097,687.6718749999999,121.96866671244302L687.671875,124.05200004577637" style="fill: none;"/><defs><marker id="arrowhead829" viewBox="0 0 10 10" refX="9" refY="5" markerUnits="strokeWidth" markerWidth="8" markerHeight="6" orient="auto"><path d="M 0 0 L 10 5 L 0 10 z"/></marker></defs></g><g class="edge"><path class="path" marker-end="url(#arrowhead830)" d="M687.671875,44.3671875L687.6718749999999,45.22265625C687.671875,46.078125,687.671875,47.7890625,687.6718749999999,50.72786458333333C687.671875,53.666666666666664,687.671875,57.83333333333333,687.6718749999999,59.91666666666666L687.671875,62" style="fill: none;"/><defs><marker id="arrowhead830" viewBox="0 0 10 10" refX="9" refY="5" markerUnits="strokeWidth" markerWidth="8" markerHeight="6" orient="auto"><path d="M 0 0 L 10 5 L 0 10 z"/></marker></defs></g><g class="edge"><path class="path" marker-end="url(#arrowhead831)" d="M687.671875,161.10400009155273L687.6718749999999,163.18733342488605C687.671875,165.2706667582194,687.671875,169.43733342488605,687.6718749999999,173.60400009155273C687.671875,177.7706667582194,687.671875,181.93733342488605,687.6718749999999,184.0206667582194L687.671875,186.10400009155273" style="fill: none;"/><defs><marker id="arrowhead831" viewBox="0 0 10 10" refX="9" refY="5" markerUnits="strokeWidth" markerWidth="8" markerHeight="6" orient="auto"><path d="M 0 0 L 10 5 L 0 10 z"/></marker></defs></g><g class="edge"><path class="path" marker-end="url(#arrowhead832)" d="M687.671875,223.1560001373291L687.6718749999999,225.23933347066242C687.671875,227.32266680399576,687.671875,231.48933347066242,687.6718749999999,235.6560001373291C687.671875,239.82266680399576,687.671875,243.98933347066242,687.6718749999999,246.07266680399573L687.671875,248.1560001373291" style="fill: none;"/><defs><marker id="arrowhead832" viewBox="0 0 10 10" refX="9" refY="5" markerUnits="strokeWidth" markerWidth="8" markerHeight="6" orient="auto"><path d="M 0 0 L 10 5 L 0 10 z"/></marker></defs></g><g class="edge"><path class="path" marker-end="url(#arrowhead833)" d="M687.671875,285.20800018310547L687.6718749999999,287.2913335164388C687.671875,289.3746668497721,687.671875,293.5413335164388,687.6718749999999,297.70800018310547C687.671875,301.8746668497721,687.671875,306.0413335164388,687.6718749999999,308.1246668497721L687.671875,310.20800018310547" style="fill: none;"/><defs><marker id="arrowhead833" viewBox="0 0 10 10" refX="9" refY="5" markerUnits="strokeWidth" markerWidth="8" markerHeight="6" orient="auto"><path d="M 0 0 L 10 5 L 0 10 z"/></marker></defs></g><g class="edge"><path class="path" marker-end="url(#arrowhead834)" d="M687.671875,347.20800018310547L687.6718749999999,349.2913335164388C687.671875,351.3746668497721,687.671875,355.5413335164388,687.6718749999999,359.70800018310547C687.671875,363.8746668497721,687.671875,368.0413335164388,687.6718749999999,370.12466684977215L687.671875,372.20800018310547" style="fill: none;"/><defs><marker id="arrowhead834" viewBox="0 0 10 10" refX="9" refY="5" markerUnits="strokeWidth" markerWidth="8" markerHeight="6" orient="auto"><path d="M 0 0 L 10 5 L 0 10 z"/></marker></defs></g><g class="edge"><path class="path" marker-end="url(#arrowhead835)" d="M687.671875,409.20800018310547L687.6718749999999,411.2913335164387C687.671875,413.3746668497721,687.671875,417.5413335164387,687.6718749999999,421.7080001831054C687.671875,425.8746668497721,687.671875,430.0413335164388,687.6718749999999,432.1246668497721L687.671875,434.20800018310547" style="fill: none;"/><defs><marker id="arrowhead835" viewBox="0 0 10 10" refX="9" refY="5" markerUnits="strokeWidth" markerWidth="8" markerHeight="6" orient="auto"><path d="M 0 0 L 10 5 L 0 10 z"/></marker></defs></g><g class="edge"><path class="path" marker-end="url(#arrowhead836)" d="M565.03125,462.6061584070272L521.455078125,466.1231320363736C477.87890625,469.64010566571994,390.7265625,476.6740529244127,347.150390625,482.27435988709243C303.57421875,487.8746668497721,303.57421875,492.0413335164388,303.57421875,494.1246668497721L303.57421875,496.20800018310547" style="fill: none;"/><defs><marker id="arrowhead836" viewBox="0 0 10 10" refX="9" refY="5" markerUnits="strokeWidth" markerWidth="8" markerHeight="6" orient="auto"><path d="M 0 0 L 10 5 L 0 10 z"/></marker></defs></g><g class="edge"><path class="path" marker-end="url(#arrowhead837)" d="M687.671875,471.20800018310547L687.6718749999999,473.2913335164387C687.671875,475.3746668497721,687.671875,479.5413335164388,687.6718749999999,483.7080001831054C687.671875,487.8746668497721,687.671875,492.0413335164388,687.6718749999999,494.1246668497721L687.671875,496.20800018310547" style="fill: none;"/><defs><marker id="arrowhead837" viewBox="0 0 10 10" refX="9" refY="5" markerUnits="strokeWidth" markerWidth="8" markerHeight="6" orient="auto"><path d="M 0 0 L 10 5 L 0 10 z"/></marker></defs></g><g class="edge"><path class="path" marker-end="url(#arrowhead838)" d="M810.3125,463.5612496589965L848.2552083333331,466.9190414130146C886.1979166666665,470.2768331670328,962.0833333333333,476.99241667506914,1000.0260416666666,482.4335417624206C1037.96875,487.8746668497721,1037.96875,492.0413335164388,1037.96875,494.1246668497721L1037.96875,496.20800018310547" style="fill: none;"/><defs><marker id="arrowhead838" viewBox="0 0 10 10" refX="9" refY="5" markerUnits="strokeWidth" markerWidth="8" markerHeight="6" orient="auto"><path d="M 0 0 L 10 5 L 0 10 z"/></marker></defs></g><g class="edge"><path class="path" marker-end="url(#arrowhead839)" d="M303.57421875,533.2600002288818L303.57421875,535.3433335622151C303.57421875,537.4266668955485,303.57421875,541.5933335622151,303.57421875,545.7643335660298C303.57421875,549.9353335698445,303.57421875,554.1106669108073,303.57421875,556.1983335812886L303.57421875,558.28600025177" style="fill: none;"/><defs><marker id="arrowhead839" viewBox="0 0 10 10" refX="9" refY="5" markerUnits="strokeWidth" markerWidth="8" markerHeight="6" orient="auto"><path d="M 0 0 L 10 5 L 0 10 z"/></marker></defs></g><g class="edge"><path class="path" marker-end="url(#arrowhead840)" d="M303.57421875,595.28600025177L303.57421875,597.3736669222513C303.57421875,599.4613335927327,303.57421875,603.6366669336954,303.57421875,607.8076669375101C303.57421875,611.9786669413248,303.57421875,616.1453336079915,303.57421875,618.2286669413248L303.57421875,620.3120002746582" style="fill: none;"/><defs><marker id="arrowhead840" viewBox="0 0 10 10" refX="9" refY="5" markerUnits="strokeWidth" markerWidth="8" markerHeight="6" orient="auto"><path d="M 0 0 L 10 5 L 0 10 z"/></marker></defs></g><g class="edge"><path class="path" marker-end="url(#arrowhead841)" d="M303.57421875,657.3120002746582L303.57421875,659.3953336079916C303.57421875,661.4786669413248,303.57421875,665.6453336079915,303.57421875,669.8120002746581C303.57421875,673.9786669413248,303.57421875,678.1453336079915,303.57421875,680.2286669413248L303.57421875,682.3120002746582" style="fill: none;"/><defs><marker id="arrowhead841" viewBox="0 0 10 10" refX="9" refY="5" markerUnits="strokeWidth" markerWidth="8" markerHeight="6" orient="auto"><path d="M 0 0 L 10 5 L 0 10 z"/></marker></defs></g><g class="edge"><path class="path" marker-end="url(#arrowhead842)" d="M222.06640625,716.2730993018351L208.4134114583333,718.862916130639C194.76041666666663,721.4527329594428,167.45442708333331,726.6323666170505,153.80143229166666,731.3055167791877C140.1484375,735.9786669413248,140.1484375,740.1453336079915,140.14843749999997,742.2286669413248L140.1484375,744.3120002746582" style="fill: none;"/><defs><marker id="arrowhead842" viewBox="0 0 10 10" refX="9" refY="5" markerUnits="strokeWidth" markerWidth="8" markerHeight="6" orient="auto"><path d="M 0 0 L 10 5 L 0 10 z"/></marker></defs></g><g class="edge"><path class="path" marker-end="url(#arrowhead843)" d="M385.08203125,716.2730993018351L398.7350260416666,718.862916130639C412.38802083333326,721.4527329594428,439.69401041666663,726.6323666170505,453.3470052083333,731.3055167791877C467,735.9786669413248,467,740.1453336079915,466.99999999999994,742.2286669413248L467,744.3120002746582" style="fill: none;"/><defs><marker id="arrowhead843" viewBox="0 0 10 10" refX="9" refY="5" markerUnits="strokeWidth" markerWidth="8" markerHeight="6" orient="auto"><path d="M 0 0 L 10 5 L 0 10 z"/></marker></defs></g><g class="edge"><path class="path" marker-end="url(#arrowhead844)" d="M140.1484375,781.3640003204346L140.14843749999997,783.4473336537677C140.1484375,785.5306669871011,140.1484375,789.6973336537678,151.12214914033385,793.8640003204346C162.0958607806677,798.0306669871012,184.04328406133544,802.1973336537678,195.0169957016693,804.2806669871012L205.99070734200316,806.3640003204346" style="fill: none;"/><defs><marker id="arrowhead844" viewBox="0 0 10 10" refX="9" refY="5" markerUnits="strokeWidth" markerWidth="8" markerHeight="6" orient="auto"><path d="M 0 0 L 10 5 L 0 10 z"/></marker></defs></g><g class="edge"><path class="path" marker-end="url(#arrowhead845)" d="M303.57421875,843.4160003662109L303.57421875,845.4993336995441C303.57421875,847.5826670328775,303.57421875,851.7493336995442,343.81119791666663,857.9261766680319C384.0481770833333,864.1030196365194,464.52213541666663,872.2900389068279,504.75911458333326,876.3835485419822L544.99609375,880.4770581771365" style="fill: none;"/><defs><marker id="arrowhead845" viewBox="0 0 10 10" refX="9" refY="5" markerUnits="strokeWidth" markerWidth="8" markerHeight="6" orient="auto"><path d="M 0 0 L 10 5 L 0 10 z"/></marker></defs></g><g class="edge"><path class="path" marker-end="url(#arrowhead846)" d="M467,781.3640003204346L466.99999999999994,783.4473336537677C467,785.5306669871011,467,789.6973336537678,456.02628835966607,793.8640003204346C445.05257671933225,798.0306669871012,423.1051534386645,802.1973336537678,412.1314417983307,804.2806669871012L401.15773015799687,806.3640003204346" style="fill: none;"/><defs><marker id="arrowhead846" viewBox="0 0 10 10" refX="9" refY="5" markerUnits="strokeWidth" markerWidth="8" markerHeight="6" orient="auto"><path d="M 0 0 L 10 5 L 0 10 z"/></marker></defs></g><g class="edge"><path class="path" marker-end="url(#arrowhead847)" d="M608.54296875,905.4680004119873L608.54296875,907.5513337453204C608.54296875,909.6346670786538,608.54296875,913.8013337453206,608.54296875,917.3547191619873C608.54296875,920.9081045786539,608.54296875,923.8482087453206,608.54296875,925.3182608286539L608.54296875,926.7883129119873" style="fill: none;"/><defs><marker id="arrowhead847" viewBox="0 0 10 10" refX="9" refY="5" markerUnits="strokeWidth" markerWidth="8" markerHeight="6" orient="auto"><path d="M 0 0 L 10 5 L 0 10 z"/></marker></defs></g><g class="edge"><path class="path" marker-end="url(#arrowhead848)" d="M862.8203125,595.3120002746582L862.8203124999999,597.3953336079915C862.8203125,599.4786669413248,862.8203125,603.6453336079915,862.8203124999999,610.8953336079915C862.8203125,618.1453336079915,862.8203125,628.4786669413248,862.8203124999999,638.8120002746582C862.8203125,649.1453336079915,862.8203125,659.4786669413248,862.8203124999999,669.8120002746582C862.8203125,680.1453336079915,862.8203125,690.4786669413248,862.8203124999999,700.8120002746582C862.8203125,711.1453336079915,862.8203125,721.4786669413248,862.8203124999999,731.8163336118062C862.8203125,742.1540002822876,862.8203125,752.496000289917,862.8203124999999,762.8380002975463C862.8203125,773.1800003051758,862.8203125,783.5220003128052,862.8203124999999,793.8640003204345C862.8203125,804.206000328064,862.8203125,814.5480003356934,862.8203124999999,824.8900003433226C862.8203125,835.2320003509521,862.8203125,845.5740003585815,831.0319010416666,854.6237071322903C799.2434895833333,863.6734139059993,735.6666666666666,871.4308274457876,703.8782552083334,875.3095342156817L672.08984375,879.1882409855759" style="fill: none;"/><defs><marker id="arrowhead848" viewBox="0 0 10 10" refX="9" refY="5" markerUnits="strokeWidth" markerWidth="8" markerHeight="6" orient="auto"><path d="M 0 0 L 10 5 L 0 10 z"/></marker></defs></g><g class="edge"><path class="path" marker-end="url(#arrowhead849)" d="M687.671875,533.2600002288818L687.6718749999999,535.3433335622151C687.671875,537.4266668955485,687.671875,541.5933335622151,699.4327393671699,545.7600002288818C711.1936037343398,549.9266668955485,734.7153324686798,554.0933335622151,746.4761968358498,556.1766668955485L758.2370612030197,558.2600002288818" style="fill: none;"/><defs><marker id="arrowhead849" viewBox="0 0 10 10" refX="9" refY="5" markerUnits="strokeWidth" markerWidth="8" markerHeight="6" orient="auto"><path d="M 0 0 L 10 5 L 0 10 z"/></marker></defs></g><g class="edge"><path class="path" marker-end="url(#arrowhead850)" d="M1037.96875,533.2600002288818L1037.96875,535.3433335622151C1037.96875,537.4266668955485,1037.96875,541.5933335622151,1026.2078856328299,545.7600002288818C1014.44702126566,549.9266668955485,990.9252925313201,554.0933335622151,979.1644281641502,556.1766668955485L967.4035637969803,558.2600002288818" style="fill: none;"/><defs><marker id="arrowhead850" viewBox="0 0 10 10" refX="9" refY="5" markerUnits="strokeWidth" markerWidth="8" markerHeight="6" orient="auto"><path d="M 0 0 L 10 5 L 0 10 z"/></marker></defs></g></g></g><style xmlns="http://www.w3.org/1999/xhtml">.node &gt; .shape {stroke: #555555;stroke-width: 0.6px;fill: #FFFFFF;} path {stroke: #555;background-color: #555;stroke-width: 1px;} .node.state.NotYetStarted &gt; .shape,.node.state.Container &gt; .shape {stroke-dasharray: 5 2;} .node.state.Failed &gt; .shape,rect.legend.Failed {fill: #DE322F;} .node.state.CaughtError &gt; .shape,rect.legend.CaughtError {fill: #FFA500;} .node.state.Succeeded &gt; .shape,rect.legend.Succeeded {fill: #2BD62E;} .node.state.InProgress &gt; .shape,rect.legend.InProgress {fill: #53c9ed;} .node.state.Cancelled &gt; .shape,rect.legend.Cancelled {fill: #dddddd;} .node.anchor &gt; .shape {fill: #FFDA75;} .node.state.hovered:not(.selected):not(.NotYetStarted) &gt; .shape,.node.selected &gt; .shape {stroke: #555555;stroke-width: 2px;} .node.state.Container.Failed &gt; .shape {fill: #EE9592;} .node.state.Container.CaughtError &gt; .shape {fill: #FFD27F;} .node.state.Container.Succeeded &gt; .shape {fill: #91EA9A;} .node.state.Container.InProgress &gt; .shape {fill :#A9E4F7;} .node.state.Container.Cancelled &gt; .shape {fill: #EEEEEE;} marker {fill: #555555;} .node.anchor,.node.state.NotYetStarted {cursor: default;} .node.state {cursor: pointer;} tspan .label {font-weight: normal;font-size: 12px;text-shadow: none;} </style></svg>
